<svg class="qodef--icon" xmlns="http://www.w3.org/2000/svg" width="16.635" height="16.492" viewBox="0 0 16.635 16.492">  <g transform="translate(-6646.091 -506.742)">    <path d="M17.67,13.767c-.078.1-.106.147-.184.158a1.47,1.47,0,0,1-.208,0c-.083,0-.142-.131-.153-.153-.181-.306-.345-.626-.545-.916-.083-.123-.454-.7-1.252-1.83a3.041,3.041,0,0,1-.312-.534,2.794,2.794,0,0,1-.231-.82,2.684,2.684,0,0,1,.185-1.248,2.724,2.724,0,0,1,.822-1.109A2.69,2.69,0,0,1,17,6.778a2.7,2.7,0,0,1,3.1,2.128,2.726,2.726,0,0,1-.142,1.49,3.429,3.429,0,0,1-.271.5c-.407.671-.581.8-1.2,1.673" transform="translate(6636.982 500)"></path>    <path d="M16.135,14.711c.1.077.147.1.158.183a1.484,1.484,0,0,1,0,.209c0,.082-.131.141-.153.153-.306.18-.626.344-.916.544-.123.084-.7.454-1.83,1.253a3.041,3.041,0,0,1-.534.312,2.829,2.829,0,0,1-.82.231,2.69,2.69,0,0,1-1.248-.186,2.641,2.641,0,0,1-1.644-2.033,2.7,2.7,0,0,1,2.128-3.1,2.726,2.726,0,0,1,1.49.142,3.429,3.429,0,0,1,.5.271c.671.408.8.581,1.673,1.2" transform="translate(6636.982 500)"></path>    <path d="M17.67,16.208c-.078-.1-.106-.147-.184-.158a1.47,1.47,0,0,0-.208,0c-.083,0-.142.131-.153.153-.181.306-.345.626-.545.916-.083.123-.454.7-1.252,1.83a3.041,3.041,0,0,0-.312.534,2.794,2.794,0,0,0-.231.82,2.684,2.684,0,0,0,.185,1.248,2.724,2.724,0,0,0,.822,1.109A2.69,2.69,0,0,0,17,23.2a2.7,2.7,0,0,0,3.1-2.128,2.726,2.726,0,0,0-.142-1.49,3.429,3.429,0,0,0-.271-.5c-.407-.671-.581-.8-1.2-1.673" transform="translate(6636.982 500)"></path>    <path d="M18.719,14.711c-.1.077-.147.1-.158.183a1.484,1.484,0,0,0,0,.209c0,.082.131.141.153.153.306.18.626.344.916.544.123.084.7.454,1.83,1.253a3.041,3.041,0,0,0,.534.312,2.829,2.829,0,0,0,.82.231,2.69,2.69,0,0,0,1.248-.186,2.641,2.641,0,0,0,1.644-2.033,2.7,2.7,0,0,0-2.128-3.1,2.726,2.726,0,0,0-1.49.142,3.429,3.429,0,0,0-.5.271c-.671.408-.8.581-1.673,1.2" transform="translate(6636.982 500)"></path>    <path d="M18.283,14.988a.856.856,0,1,1-.856-.856.856.856,0,0,1,.856.856" transform="translate(6636.982 500)"></path>  </g></svg>